<?xml version="1.0" encoding="UTF-8" standalone="no"?>
<!-- Created with Inkscape (http://www.inkscape.org/) -->

<svg
   width="512"
   height="512"
   viewBox="0 0 512 512"
   version="1.1"
   id="svg1"
   xml:space="preserve"
   inkscape:version="1.4 (e7c3feb100, 2024-10-09)"
   sodipodi:docname="sicroc.svg"
   inkscape:export-filename="logo.png"
   inkscape:export-xdpi="107.89942"
   inkscape:export-ydpi="107.89942"
   xmlns:inkscape="http://www.inkscape.org/namespaces/inkscape"
   xmlns:sodipodi="http://sodipodi.sourceforge.net/DTD/sodipodi-0.dtd"
   xmlns:xlink="http://www.w3.org/1999/xlink"
   xmlns="http://www.w3.org/2000/svg"
   xmlns:svg="http://www.w3.org/2000/svg"><sodipodi:namedview
     id="namedview1"
     pagecolor="#ffffff"
     bordercolor="#111111"
     borderopacity="1"
     inkscape:showpageshadow="0"
     inkscape:pageopacity="0"
     inkscape:pagecheckerboard="1"
     inkscape:deskcolor="#d1d1d1"
     inkscape:document-units="px"
     showgrid="true"
     inkscape:zoom="1"
     inkscape:cx="192"
     inkscape:cy="249.5"
     inkscape:window-width="1920"
     inkscape:window-height="1056"
     inkscape:window-x="1280"
     inkscape:window-y="1104"
     inkscape:window-maximized="1"
     inkscape:current-layer="layer1"><inkscape:grid
       id="grid3"
       units="px"
       originx="0"
       originy="0"
       spacingx="32"
       spacingy="32"
       empcolor="#3f3fff"
       empopacity="0.25098039"
       color="#3f3fff"
       opacity="0.1254902"
       empspacing="4"
       enabled="true"
       visible="true" /></sodipodi:namedview><defs
     id="defs1"><linearGradient
       id="linearGradient12"
       inkscape:collect="always"><stop
         style="stop-color:#cdeb8b;stop-opacity:1;"
         offset="0"
         id="stop12" /><stop
         style="stop-color:#a7e52b;stop-opacity:1;"
         offset="1"
         id="stop13" /></linearGradient><linearGradient
       id="swatch11"
       inkscape:swatch="solid"><stop
         style="stop-color:#cdeb8b;stop-opacity:1;"
         offset="0"
         id="stop11" /></linearGradient><linearGradient
       inkscape:collect="always"
       xlink:href="#linearGradient12"
       id="linearGradient13"
       x1="256"
       y1="28.23233"
       x2="256"
       y2="483.76767"
       gradientUnits="userSpaceOnUse" /></defs><g
     inkscape:label="Layer 1"
     inkscape:groupmode="layer"
     id="layer1"><circle
       style="fill:url(#linearGradient13);fill-opacity:1;fill-rule:nonzero;stroke:#000000;stroke-width:16;stroke-linecap:butt;stroke-linejoin:bevel;stroke-miterlimit:5.6;stroke-dasharray:none;stroke-opacity:1;paint-order:fill markers stroke"
       id="path11"
       cx="256"
       cy="256"
       r="219.76767" /><path
       fill="currentColor"
       d="m 256.00301,374.49348 q -53.68765,0 -90.8352,-15.83036 Q 128.02023,342.83277 128.006,320 V 183.76635 q 0,-22.47854 37.51735,-38.48599 37.51734,-16.00746 90.47966,-16.00746 52.96231,0 90.49387,16.00746 Q 384.02845,161.28781 384,183.76635 V 320 q 0,22.81915 -37.16182,38.66312 -37.16178,15.844 -90.83517,15.83036 m 0,-163.13979 q 31.64371,0 63.64294,-8.69173 31.99925,-8.6917 35.91028,-18.55503 -3.91103,-9.87693 -35.72538,-18.73212 -31.81438,-8.85518 -63.82784,-8.85518 -32.3548,0 -63.45808,8.69171 -31.10326,8.6917 -36.09516,18.89559 4.97768,10.21753 36.09516,18.73214 31.11749,8.51462 63.45808,8.51462 m 0,67.77621 q 14.93297,0 28.79931,-1.36233 13.86634,-1.36232 26.49538,-3.92353 12.62903,-2.56119 23.82167,-6.29399 11.19262,-3.73279 20.43686,-8.5146 v -40.8701 q -9.24424,4.76817 -20.43686,8.5146 -11.19264,3.74643 -23.82167,6.30764 -12.62904,2.56118 -26.49538,3.9099 -13.86634,1.34871 -28.79931,1.36234 -14.93298,0.0138 -29.15487,-1.36234 -14.22191,-1.37597 -26.85094,-3.92353 -12.62905,-2.54758 -23.6368,-6.29401 -11.00771,-3.74643 -19.91063,-8.5146 v 40.8701 q 8.88868,4.7682 19.91063,8.5146 11.02199,3.74643 23.65102,6.30762 12.62904,2.56119 26.83672,3.9099 14.20765,1.34874 29.15487,1.36233 m 0,68.11686 q 16.35515,0 33.25076,-2.38409 16.89561,-2.38411 31.10327,-6.29401 14.20766,-3.90991 23.82167,-8.85519 9.61398,-4.94529 11.37752,-10.05406 V 286.2822 q -9.24424,4.76816 -20.43686,8.51458 -11.19264,3.74644 -23.82167,6.30763 -12.62904,2.5612 -26.49538,3.90991 -13.86634,1.34871 -28.79931,1.36233 -14.93298,0.0138 -29.15487,-1.36233 -14.22191,-1.37598 -26.85094,-3.92353 -12.62905,-2.54757 -23.6368,-6.29401 -11.00771,-3.74642 -19.91063,-8.51458 V 320 q 1.77775,5.10877 11.20684,9.87695 9.42914,4.76818 23.63679,8.69171 14.20767,3.92353 31.28816,6.29401 17.08051,2.37045 33.42145,2.38409"
       id="path1"
       style="stroke-width:13.9195" /></g></svg>
