<?xml version="1.0" encoding="UTF-8" standalone="no"?>
<!-- Created with Inkscape (http://www.inkscape.org/) -->

<svg
   width="512"
   height="512"
   viewBox="0 0 512 512"
   version="1.1"
   id="svg1"
   xml:space="preserve"
   inkscape:version="1.4 (e7c3feb100, 2024-10-09)"
   sodipodi:docname="logo.svg"
   inkscape:export-filename="logo.png"
   inkscape:export-xdpi="107.89942"
   inkscape:export-ydpi="107.89942"
   xmlns:inkscape="http://www.inkscape.org/namespaces/inkscape"
   xmlns:sodipodi="http://sodipodi.sourceforge.net/DTD/sodipodi-0.dtd"
   xmlns:xlink="http://www.w3.org/1999/xlink"
   xmlns="http://www.w3.org/2000/svg"
   xmlns:svg="http://www.w3.org/2000/svg"><sodipodi:namedview
     id="namedview1"
     pagecolor="#ffffff"
     bordercolor="#111111"
     borderopacity="1"
     inkscape:showpageshadow="0"
     inkscape:pageopacity="0"
     inkscape:pagecheckerboard="1"
     inkscape:deskcolor="#d1d1d1"
     inkscape:document-units="px"
     showgrid="true"
     inkscape:zoom="1"
     inkscape:cx="278.5"
     inkscape:cy="216.5"
     inkscape:window-width="1920"
     inkscape:window-height="1056"
     inkscape:window-x="1280"
     inkscape:window-y="1104"
     inkscape:window-maximized="1"
     inkscape:current-layer="layer1"><inkscape:grid
       id="grid3"
       units="px"
       originx="0"
       originy="0"
       spacingx="32"
       spacingy="32"
       empcolor="#3f3fff"
       empopacity="0.25098039"
       color="#3f3fff"
       opacity="0.1254902"
       empspacing="4"
       enabled="true"
       visible="true" /></sodipodi:namedview><defs
     id="defs1"><linearGradient
       id="linearGradient7"
       inkscape:collect="always"><stop
         style="stop-color:#c0e76d;stop-opacity:1;"
         offset="0"
         id="stop7" /><stop
         style="stop-color:#b7e250;stop-opacity:1;"
         offset="1"
         id="stop8" /></linearGradient><linearGradient
       id="linearGradient3"
       inkscape:collect="always"><stop
         style="stop-color:#d4ec9d;stop-opacity:1;"
         offset="0"
         id="stop3" /><stop
         style="stop-color:#b1e24e;stop-opacity:1;"
         offset="0.63376021"
         id="stop4" /></linearGradient><linearGradient
       id="swatch11"
       inkscape:swatch="solid"><stop
         style="stop-color:#cdeb8b;stop-opacity:1;"
         offset="0"
         id="stop11" /></linearGradient><linearGradient
       inkscape:collect="always"
       xlink:href="#linearGradient3"
       id="linearGradient4"
       x1="253.23808"
       y1="34.708824"
       x2="253.23808"
       y2="489.51443"
       gradientUnits="userSpaceOnUse" /><linearGradient
       inkscape:collect="always"
       xlink:href="#linearGradient7"
       id="linearGradient8"
       x1="261.73129"
       y1="153.14868"
       x2="261.73129"
       y2="357.69815"
       gradientUnits="userSpaceOnUse" /></defs><g
     inkscape:label="Layer 1"
     inkscape:groupmode="layer"
     id="layer1"><path
       style="fill:url(#linearGradient4);stroke:#000000;stroke-width:1px;stroke-linecap:butt;stroke-linejoin:miter;stroke-opacity:1;fill-opacity:1"
       d="M 119.71669,88.302383 26.5,201 256,448 480,206 389,76 Z"
       id="path3" /><path
       style="fill:none;stroke:#000000;stroke-width:1px;stroke-linecap:butt;stroke-linejoin:miter;stroke-opacity:1"
       d="M 128,78 C 32,197.5 26.5,201 26.5,201 L 256,448 363.5,340.5 480,206 V 192 L 389,76 Z"
       id="path2" /><path
       style="fill:url(#linearGradient8);stroke:#000000;stroke-width:1px;stroke-linecap:butt;stroke-linejoin:miter;stroke-opacity:1;fill-opacity:1"
       d="M 214.96786,77.33358 160,204.35386 256,433.45646 363.45289,207.18229 301.93689,76.66715 Z"
       id="path4" /><path
       fill="currentColor"
       d="M 60.787188,211.92068 211.46504,379.7229 138.6483,211.92068 Z M 256,433.45646 352,211.42068 163.25017,212.11035 Z M 139.87148,188.5655 189.04678,96 H 125.89016 L 56.46599,188.5655 Z M 302.5843,379.7229 452.26215,211.92068 H 374.40103 Z M 165.67865,188.75517 350.57152,188.0655 298.04933,96 H 213.5 Z m 208.4992,-0.18967 h 83.40534 L 388.15917,96 H 325.0024 Z M 408.16668,71.412291 500.73229,194.83295 c 2.24979,2.89268 3.29434,6.22729 3.13363,10.00383 -0.16071,3.77655 -1.52666,7.03081 -4.09786,9.76278 L 268.35425,461.44098 c -2.89261,3.21403 -6.66917,4.82104 -11.32966,4.82104 -4.66039,0 -8.43689,-1.60701 -11.32951,-4.82104 L 14.281279,214.59956 c -2.571305,-2.73197 -3.937311,-5.98623 -4.098018,-9.76278 -0.160707,-3.77654 0.883886,-7.11115 3.133778,-10.00383 L 105.8825,71.412291 c 2.89272,-4.17831 6.99069,-6.267465 12.2939,-6.267465 h 277.69653 c 5.30322,0 9.40114,2.089155 12.29375,6.267465"
       id="path1-6"
       style="stroke-width:0.241055"
       sodipodi:nodetypes="cccccccccccccccccccccccccccccsccsccsccssc" /></g></svg>
